PublicSans-Thin.ufo
<glyph name="percent" format="2">
  <advance width="1738"/>
  <unicode hex="0025"/>
  <outline>
    <contour>
      <point x="440" y="1468" type="curve" smooth="yes"/>
      <point x="254" y="1468"/>
      <point x="120" y="1326"/>
      <point x="120" y="1054" type="curve" smooth="yes"/>
      <point x="120" y="780"/>
      <point x="254" y="638"/>
      <point x="440" y="638" type="curve" smooth="yes"/>
      <point x="626" y="638"/>
      <point x="756" y="780"/>
      <point x="756" y="1054" type="curve" smooth="yes"/>
      <point x="756" y="1326"/>
      <point x="626" y="1468"/>
    </contour>
    <contour>
      <point x="438" y="696" type="curve" smooth="yes"/>
      <point x="286" y="696"/>
      <point x="188" y="848"/>
      <point x="188" y="1054" type="curve" smooth="yes"/>
      <point x="188" y="1258"/>
      <point x="286" y="1410"/>
      <point x="438" y="1410" type="curve" smooth="yes"/>
      <point x="590" y="1410"/>
      <point x="688" y="1260"/>
      <point x="688" y="1054" type="curve" smooth="yes"/>
      <point x="688" y="846"/>
      <point x="590" y="696"/>
    </contour>
    <contour>
      <point x="1302" y="812" type="curve" smooth="yes"/>
      <point x="1116" y="812"/>
      <point x="982" y="668"/>
      <point x="982" y="398" type="curve" smooth="yes"/>
      <point x="982" y="122"/>
      <point x="1116" y="-20"/>
      <point x="1302" y="-20" type="curve" smooth="yes"/>
      <point x="1488" y="-20"/>
      <point x="1618" y="122"/>
      <point x="1618" y="398" type="curve" smooth="yes"/>
      <point x="1618" y="668"/>
      <point x="1488" y="812"/>
    </contour>
    <contour>
      <point x="1300" y="40" type="curve" smooth="yes"/>
      <point x="1154" y="40"/>
      <point x="1050" y="196"/>
      <point x="1050" y="396" type="curve" smooth="yes"/>
      <point x="1050" y="594"/>
      <point x="1154" y="752"/>
      <point x="1300" y="752" type="curve" smooth="yes"/>
      <point x="1446" y="752"/>
      <point x="1550" y="596"/>
      <point x="1550" y="396" type="curve" smooth="yes"/>
      <point x="1550" y="196"/>
      <point x="1446" y="40"/>
    </contour>
    <component base="fraction" xOffset="627"/>
  </outline>
</glyph>
<glyph name="plus" format="2">
  <advance width="1042"/>
  <unicode hex="002B"/>
  <outline>
    <contour>
      <point x="912" y="764" type="line"/>
      <point x="130" y="762" type="line"/>
      <point x="130" y="688" type="line"/>
      <point x="912" y="690" type="line"/>
    </contour>
    <contour>
      <point x="560" y="336" type="line"/>
      <point x="558" y="1118" type="line"/>
      <point x="484" y="1118" type="line"/>
      <point x="486" y="336" type="line"/>
    </contour>
  </outline>
</glyph>
<glyph name="comma" format="2">
  <advance width="412"/>
  <unicode hex="002C"/>
  <guideline x="68" y="0" angle="66.5601"/>
  <outline>
    <contour>
      <point x="80" y="-222" type="line"/>
      <point x="144" y="-222" type="line"/>
      <point x="282" y="24" type="line"/>
      <point x="282" y="160" type="line"/>
      <point x="116" y="160" type="line"/>
      <point x="116" y="0" type="line"/>
      <point x="188" y="0" type="line"/>
    </contour>
  </outline>
</glyph>
<glyph name="one" format="2">
  <advance width="771"/>
  <unicode hex="0031"/>
  <outline>
    <contour>
      <point x="400" y="0" type="line"/>
      <point x="486" y="0" type="line"/>
      <point x="486" y="1446" type="line"/>
      <point x="416" y="1446" type="line"/>
      <point x="416" y="1336"/>
      <point x="370" y="1296"/>
      <point x="100" y="1296" type="curve"/>
      <point x="100" y="1218" type="line"/>
      <point x="400" y="1218" type="line"/>
    </contour>
  </outline>
</glyph>
<glyph name="equal" format="2">
  <advance width="1042"/>
  <unicode hex="003D"/>
  <outline>
    <contour>
      <point x="912" y="960" type="line"/>
      <point x="130" y="958" type="line"/>
      <point x="130" y="884" type="line"/>
      <point x="912" y="886" type="line"/>
    </contour>
    <contour>
      <point x="912" y="530" type="line"/>
      <point x="130" y="528" type="line"/>
      <point x="130" y="454" type="line"/>
      <point x="912" y="456" type="line"/>
    </contour>
  </outline>
</glyph>
<glyph name="N" format="2">
  <advance width="1452"/>
  <unicode hex="004E"/>
  <guideline x="120" y="534" angle="0"/>
  <guideline x="122" y="610" angle="123.9688"/>
  <anchor x="678" y="0" name="bottom"/>
  <anchor x="726" y="1446" name="top"/>
  <outline>
    <contour>
      <point x="1154" y="1446" type="line"/>
      <point x="1154" y="156" type="line"/>
      <point x="284" y="1446" type="line"/>
      <point x="220" y="1446" type="line"/>
      <point x="220" y="0" type="line"/>
      <point x="298" y="0" type="line"/>
      <point x="298" y="1286" type="line"/>
      <point x="1164" y="0" type="line"/>
      <point x="1232" y="0" type="line"/>
      <point x="1232" y="1446" type="line"/>
    </contour>
  </outline>
</glyph>
<glyph name="Z" format="2">
  <advance width="1208"/>
  <unicode hex="005A"/>
  <guideline x="500" y="659" angle="237.1304"/>
  <anchor x="647" y="0" name="bottom"/>
  <anchor x="633" y="1446" name="top"/>
  <outline>
    <contour>
      <point x="147" y="0" type="line"/>
      <point x="1098" y="0" type="line"/>
      <point x="1098" y="78" type="line"/>
      <point x="245" y="78" type="line"/>
      <point x="1098" y="1386" type="line"/>
      <point x="1098" y="1446" type="line"/>
      <point x="165" y="1446" type="line"/>
      <point x="165" y="1368" type="line"/>
      <point x="997" y="1368" type="line"/>
      <point x="147" y="62" type="line"/>
    </contour>
  </outline>
</glyph>
<glyph name="bracketleft" format="2">
  <advance width="538"/>
  <unicode hex="005B"/>
  <outline>
    <contour>
      <point x="210" y="1446" type="line"/>
      <point x="212" y="-322" type="line"/>
      <point x="496" y="-322" type="line"/>
      <point x="496" y="-250" type="line"/>
      <point x="294" y="-250" type="line"/>
      <point x="296" y="1374" type="line"/>
      <point x="498" y="1374" type="line"/>
      <point x="498" y="1446" type="line"/>
    </contour>
  </outline>
</glyph>
<glyph name="j" format="2">
  <advance width="473"/>
  <unicode hex="006A"/>
  <guideline x="207" y="472" angle="90"/>
  <guideline x="285" y="467" angle="90"/>
  <outline>
    <contour>
      <point x="285" y="-100" type="curve" smooth="yes"/>
      <point x="285" y="1034" type="line"/>
      <point x="207" y="1034" type="line"/>
      <point x="207" y="-90" type="line" smooth="yes"/>
      <point x="207" y="-214"/>
      <point x="167" y="-258"/>
      <point x="64" y="-260" type="curve" smooth="yes"/>
      <point x="-60" y="-262" type="line"/>
      <point x="-60" y="-314" type="line" smooth="yes"/>
      <point x="-60" y="-314"/>
      <point x="-51" y="-332"/>
      <point x="66" y="-332" type="curve" smooth="yes"/>
      <point x="243" y="-332"/>
      <point x="285" y="-260"/>
    </contour>
    <contour>
      <point x="293" y="1444" type="line"/>
      <point x="197" y="1444" type="line"/>
      <point x="197" y="1324" type="line"/>
      <point x="293" y="1324" type="line"/>
    </contour>
  </outline>
</glyph>
<glyph name="v" format="2">
  <advance width="973"/>
  <unicode hex="0076"/>
  <guideline x="424" y="0" angle="288.998"/>
  <guideline x="550" y="0" angle="71.0017"/>
  <outline>
    <contour>
      <point x="907" y="1034" type="line"/>
      <point x="829" y="1034" type="line"/>
      <point x="499" y="88" type="line"/>
      <point x="473" y="88" type="line"/>
      <point x="150" y="1034" type="line"/>
      <point x="66" y="1034" type="line"/>
      <point x="425" y="0" type="line"/>
      <point x="551" y="0" type="line"/>
    </contour>
  </outline>
</glyph>
<glyph name="brokenbar" format="2">
  <advance width="516"/>
  <unicode hex="00A6"/>
  <outline>
    <contour>
      <point x="296" y="864" type="line"/>
      <point x="296" y="1652" type="line"/>
      <point x="220" y="1652" type="line"/>
      <point x="222" y="864" type="line"/>
    </contour>
    <contour>
      <point x="296" y="-322" type="line"/>
      <point x="296" y="466" type="line"/>
      <point x="220" y="466" type="line"/>
      <point x="222" y="-322" type="line"/>
    </contour>
  </outline>
</glyph>
<glyph name="periodcentered" format="2">
  <advance width="401"/>
  <unicode hex="00B7"/>
  <outline>
    <contour>
      <point x="280" y="806" type="line"/>
      <point x="120" y="806" type="line"/>
      <point x="120" y="652" type="line"/>
      <point x="280" y="652" type="line"/>
    </contour>
  </outline>
</glyph>
<glyph name="Eth" format="2">
  <advance width="1330"/>
  <unicode hex="00D0"/>
  <anchor x="710" y="0" name="bottom"/>
  <anchor x="658" y="724" name="center"/>
  <anchor x="646" y="1446" name="top"/>
  <outline>
    <contour>
      <point x="668" y="769" type="line"/>
      <point x="70" y="769" type="line"/>
      <point x="70" y="688" type="line"/>
      <point x="668" y="688" type="line"/>
    </contour>
    <component base="D" xOffset="-4"/>
  </outline>
</glyph>
<glyph name="dcroat" format="2">
  <advance width="1190"/>
  <unicode hex="0111"/>
  <anchor x="545" y="0" name="bottom"/>
  <anchor x="981" y="1458" name="caron"/>
  <anchor x="598" y="516" name="center"/>
  <outline>
    <contour>
      <point x="1130" y="1290" type="line"/>
      <point x="568" y="1290" type="line"/>
      <point x="568" y="1222" type="line"/>
      <point x="1130" y="1222" type="line"/>
    </contour>
    <component base="d"/>
  </outline>
</glyph>
<glyph name="Hbar" format="2">
  <advance width="1518"/>
  <unicode hex="0126"/>
  <anchor x="787" y="0" name="bottom"/>
  <anchor x="759" y="1458" name="top"/>
  <outline>
    <contour>
      <point x="1498" y="1206" type="line"/>
      <point x="20" y="1206" type="line"/>
      <point x="20" y="1128" type="line"/>
      <point x="1498" y="1128" type="line"/>
    </contour>
    <component base="H" xOffset="2"/>
  </outline>
</glyph>
<glyph name="Tbar" format="2">
  <advance width="1141"/>
  <unicode hex="0166"/>
  <guideline x="233" y="175" angle="90"/>
  <anchor x="593" y="4" name="bottom"/>
  <anchor x="593" y="1446" name="top"/>
  <outline>
    <contour>
      <point x="928" y="784" type="line"/>
      <point x="214" y="784" type="line"/>
      <point x="214" y="702" type="line"/>
      <point x="928" y="702" type="line"/>
    </contour>
    <component base="T"/>
  </outline>
</glyph>
<glyph name="macroncomb" format="2">
  <unicode hex="0304"/>
  <anchor x="264" y="1034" name="_top"/>
  <outline>
    <contour>
      <point x="508" y="1339" type="line"/>
      <point x="18" y="1339" type="line"/>
      <point x="18" y="1265" type="line"/>
      <point x="508" y="1265" type="line"/>
    </contour>
  </outline>
</glyph>
<glyph name="dotaccentcomb" format="2">
  <unicode hex="0307"/>
  <anchor x="58" y="1034" name="_top"/>
  <outline>
    <contour>
      <point x="10" y="1248" type="line"/>
      <point x="106" y="1248" type="line"/>
      <point x="106" y="1368" type="line"/>
      <point x="10" y="1368" type="line"/>
    </contour>
  </outline>
</glyph>
<glyph name="dieresiscomb" format="2">
  <unicode hex="0308"/>
  <anchor x="210" y="1034" name="_top"/>
  <outline>
    <contour>
      <point x="322" y="1248" type="line"/>
      <point x="410" y="1248" type="line"/>
      <point x="410" y="1368" type="line"/>
      <point x="322" y="1368" type="line"/>
    </contour>
    <contour>
      <point x="10" y="1248" type="line"/>
      <point x="98" y="1248" type="line"/>
      <point x="98" y="1368" type="line"/>
      <point x="10" y="1368" type="line"/>
    </contour>
  </outline>
</glyph>
<glyph name="caroncomb" format="2">
  <unicode hex="030C"/>
  <anchor x="270" y="1034" name="_top"/>
  <outline>
    <contour>
      <point x="240" y="1155" type="line"/>
      <point x="304" y="1155" type="line"/>
      <point x="538" y="1345" type="line"/>
      <point x="418" y="1345" type="line"/>
      <point x="270" y="1225" type="line"/>
      <point x="114" y="1345" type="line"/>
      <point x="0" y="1345" type="line"/>
    </contour>
  </outline>
</glyph>
<glyph name="endash" format="2">
  <advance width="1036"/>
  <unicode hex="2013"/>
  <outline>
    <contour>
      <point x="909" y="546" type="line"/>
      <point x="127" y="544" type="line"/>
      <point x="127" y="466" type="line"/>
      <point x="909" y="468" type="line"/>
    </contour>
  </outline>
</glyph>
<glyph name="won" format="2">
  <advance width="1878"/>
  <unicode hex="20A9"/>
  <anchor x="930" y="1446" name="top"/>
  <outline>
    <contour>
      <point x="1848" y="942" type="line"/>
      <point x="30" y="940" type="line"/>
      <point x="30" y="866" type="line"/>
      <point x="1848" y="868" type="line"/>
    </contour>
    <contour>
      <point x="1848" y="630" type="line"/>
      <point x="30" y="628" type="line"/>
      <point x="30" y="554" type="line"/>
      <point x="1848" y="556" type="line"/>
    </contour>
    <component base="W" xOffset="-6"/>
  </outline>
</glyph>
<glyph name="increment" format="2">
  <advance width="1272"/>
  <unicode hex="2206"/>
  <guideline x="157" y="372" angle="69.8252"/>
  <guideline x="479" y="371" angle="110.2678"/>
  <outline>
    <contour>
      <point x="40" y="0" type="line"/>
      <point x="1232" y="0" type="line"/>
      <point x="634" y="1446" type="line"/>
    </contour>
    <contour>
      <point x="162" y="84" type="line"/>
      <point x="634" y="1210" type="line"/>
      <point x="1106" y="84" type="line"/>
    </contour>
  </outline>
</glyph>
<glyph name="product" format="2">
  <advance width="1228"/>
  <unicode hex="220F"/>
  <outline>
    <contour>
      <point x="1198" y="1446" type="line"/>
      <point x="30" y="1446" type="line"/>
      <point x="30" y="1366" type="line"/>
      <point x="246" y="1366" type="line"/>
      <point x="246" y="0" type="line"/>
      <point x="336" y="0" type="line"/>
      <point x="336" y="1366" type="line"/>
      <point x="892" y="1366" type="line"/>
      <point x="892" y="0" type="line"/>
      <point x="980" y="0" type="line"/>
      <point x="980" y="1366" type="line"/>
      <point x="1198" y="1366" type="line"/>
    </contour>
  </outline>
</glyph>
<glyph name="_emdash" format="2">
  <advance width="2170"/>
  <outline>
    <contour>
      <point x="1789" y="546" type="line"/>
      <point x="381" y="544" type="line"/>
      <point x="381" y="466" type="line"/>
      <point x="1789" y="468" type="line"/>
    </contour>
  </outline>
</glyph>
<glyph name="cent.tf" format="2">
  <advance width="1400"/>
  <anchor x="704" y="222" name="bottom"/>
  <anchor x="702" y="1256" name="top"/>
  <outline>
    <contour>
      <point x="734" y="0" type="line"/>
      <point x="734" y="236" type="line"/>
      <point x="654" y="236" type="line"/>
      <point x="654" y="0" type="line"/>
    </contour>
    <contour>
      <point x="734" y="1210" type="line"/>
      <point x="734" y="1446" type="line"/>
      <point x="654" y="1446" type="line"/>
      <point x="654" y="1210" type="line"/>
    </contour>
    <component base="c" xOffset="140" yOffset="222"/>
  </outline>
</glyph>
<glyph name="colonsign.tf" format="2">
  <advance width="1400"/>
  <anchor x="708" y="0" name="bottom"/>
  <anchor x="694" y="1446" name="top"/>
  <outline>
    <contour>
      <point x="732" y="1560" type="line"/>
      <point x="412" y="-122" type="line"/>
      <point x="486" y="-122" type="line"/>
      <point x="806" y="1560" type="line"/>
    </contour>
    <contour>
      <point x="936" y="1560" type="line"/>
      <point x="616" y="-122" type="line"/>
      <point x="690" y="-122" type="line"/>
      <point x="1010" y="1560" type="line"/>
    </contour>
    <component base="C" xOffset="8"/>
  </outline>
</glyph>
<glyph name="dong.tf" format="2">
  <advance width="1400"/>
  <outline>
    <contour>
      <point x="918" y="262" type="line"/>
      <point x="988" y="262" type="line"/>
      <point x="988" y="1444" type="line"/>
      <point x="914" y="1444" type="line"/>
      <point x="914" y="1040" type="line" smooth="yes"/>
      <point x="914" y="1020"/>
      <point x="912" y="1014"/>
      <point x="892" y="1030" type="curve" smooth="yes"/>
      <point x="841" y="1071"/>
      <point x="782" y="1124"/>
      <point x="656" y="1124" type="curve" smooth="yes"/>
      <point x="424" y="1124"/>
      <point x="270" y="940"/>
      <point x="270" y="668" type="curve" smooth="yes"/>
      <point x="270" y="388"/>
      <point x="436" y="246"/>
      <point x="638" y="246" type="curve" smooth="yes"/>
      <point x="816" y="246"/>
      <point x="890" y="356"/>
      <point x="918" y="390" type="curve"/>
    </contour>
    <contour>
      <point x="908" y="932" type="curve"/>
      <point x="908" y="532" type="line" smooth="yes"/>
      <point x="908" y="440"/>
      <point x="804" y="322"/>
      <point x="654" y="322" type="curve" smooth="yes"/>
      <point x="498" y="322"/>
      <point x="360" y="432"/>
      <point x="360" y="674" type="curve" smooth="yes"/>
      <point x="360" y="908"/>
      <point x="486" y="1044"/>
      <point x="662" y="1044" type="curve" smooth="yes"/>
      <point x="758" y="1044"/>
      <point x="836" y="1004"/>
    </contour>
    <contour>
      <point x="1112" y="1306" type="line"/>
      <point x="610" y="1306" type="line"/>
      <point x="610" y="1238" type="line"/>
      <point x="1112" y="1238" type="line"/>
    </contour>
    <contour>
      <point x="998" y="68" type="line"/>
      <point x="308" y="68" type="line"/>
      <point x="308" y="0" type="line"/>
      <point x="998" y="0" type="line"/>
    </contour>
  </outline>
</glyph>
<glyph name="euro.tf" format="2">
  <advance width="1400"/>
  <guideline x="504" y="474" angle="90"/>
  <outline>
    <contour>
      <point x="872" y="-20" type="curve" smooth="yes"/>
      <point x="984" y="-20"/>
      <point x="1088" y="14"/>
      <point x="1174" y="70" type="curve"/>
      <point x="1126" y="138" type="line"/>
      <point x="1058" y="92"/>
      <point x="974" y="64"/>
      <point x="880" y="64" type="curve" smooth="yes"/>
      <point x="542" y="64"/>
      <point x="376" y="298"/>
      <point x="376" y="718" type="curve" smooth="yes"/>
      <point x="376" y="1152"/>
      <point x="546" y="1382"/>
      <point x="864" y="1382" type="curve" smooth="yes"/>
      <point x="958" y="1382"/>
      <point x="1038" y="1346"/>
      <point x="1108" y="1292" type="curve"/>
      <point x="1164" y="1368" type="line"/>
      <point x="1074" y="1430"/>
      <point x="966" y="1466"/>
      <point x="860" y="1466" type="curve" smooth="yes"/>
      <point x="494" y="1466"/>
      <point x="280" y="1190"/>
      <point x="280" y="718" type="curve" smooth="yes"/>
      <point x="280" y="248"/>
      <point x="494" y="-20"/>
    </contour>
    <contour>
      <point x="846" y="922" type="line"/>
      <point x="110" y="920" type="line"/>
      <point x="110" y="846" type="line"/>
      <point x="846" y="848" type="line"/>
    </contour>
    <contour>
      <point x="846" y="610" type="line"/>
      <point x="110" y="608" type="line"/>
      <point x="110" y="534" type="line"/>
      <point x="846" y="536" type="line"/>
    </contour>
  </outline>
</glyph>
<glyph name="one.tf" format="2">
  <advance width="1400"/>
  <outline>
    <contour>
      <point x="185" y="82" type="line"/>
      <point x="185" y="0" type="line"/>
      <point x="1223" y="0" type="line"/>
      <point x="1223" y="82" type="line"/>
    </contour>
    <contour>
      <point x="657" y="2" type="line"/>
      <point x="743" y="2" type="line"/>
      <point x="743" y="1448" type="line"/>
      <point x="659" y="1448" type="line"/>
      <point x="209" y="1252" type="line"/>
      <point x="209" y="1162" type="line"/>
      <point x="657" y="1358" type="line"/>
    </contour>
  </outline>
</glyph>
<glyph name="rupeeIndian.tf" format="2">
  <advance width="1400"/>
  <outline>
    <contour>
      <point x="170" y="790" type="line"/>
      <point x="170" y="712" type="line"/>
      <point x="630" y="712" type="line"/>
      <point x="892" y="0" type="line"/>
      <point x="990" y="0" type="line"/>
      <point x="728" y="718" type="line" smooth="yes"/>
      <point x="726" y="724"/>
      <point x="728" y="730"/>
      <point x="736" y="732" type="curve" smooth="yes"/>
      <point x="872" y="766"/>
      <point x="1032" y="864"/>
      <point x="1032" y="1102" type="curve" smooth="yes"/>
      <point x="1032" y="1330"/>
      <point x="868" y="1446"/>
      <point x="588" y="1446" type="curve" smooth="yes"/>
      <point x="170" y="1446" type="line"/>
      <point x="170" y="1368" type="line"/>
      <point x="586" y="1368" type="line" smooth="yes"/>
      <point x="822" y="1368"/>
      <point x="936" y="1278"/>
      <point x="936" y="1100" type="curve" smooth="yes"/>
      <point x="936" y="874"/>
      <point x="798" y="790"/>
      <point x="518" y="790" type="curve" smooth="yes"/>
    </contour>
    <contour>
      <point x="1192" y="1448" type="line"/>
      <point x="174" y="1446" type="line"/>
      <point x="174" y="1372" type="line"/>
      <point x="1192" y="1374" type="line"/>
    </contour>
    <contour>
      <point x="1192" y="1136" type="line"/>
      <point x="174" y="1134" type="line"/>
      <point x="174" y="1060" type="line"/>
      <point x="1192" y="1062" type="line"/>
    </contour>
  </outline>
</glyph>
<glyph name="seven.tf" format="2">
  <advance width="1400"/>
  <outline>
    <contour>
      <point x="180" y="1446" type="line"/>
      <point x="180" y="1366" type="line"/>
      <point x="1142" y="1366" type="line"/>
      <point x="826" y="872"/>
      <point x="510" y="294"/>
      <point x="444" y="0" type="curve"/>
      <point x="542" y="0" type="line"/>
      <point x="598" y="274"/>
      <point x="964" y="946"/>
      <point x="1250" y="1366" type="curve"/>
      <point x="1250" y="1446" type="line"/>
    </contour>
  </outline>
</glyph>
<glyph name="yen.tf" format="2">
  <advance width="1400"/>
  <outline>
    <contour>
      <point x="1228" y="1446" type="line"/>
      <point x="1138" y="1446" type="line"/>
      <point x="698" y="702" type="line"/>
      <point x="262" y="1446" type="line"/>
      <point x="160" y="1446" type="line"/>
      <point x="654" y="606" type="line"/>
      <point x="654" y="0" type="line"/>
      <point x="744" y="0" type="line"/>
      <point x="744" y="638" type="line"/>
    </contour>
    <contour>
      <point x="1056" y="658" type="line"/>
      <point x="342" y="656" type="line"/>
      <point x="342" y="582" type="line"/>
      <point x="1056" y="584" type="line"/>
    </contour>
    <contour>
      <point x="1056" y="384" type="line"/>
      <point x="342" y="382" type="line"/>
      <point x="342" y="308" type="line"/>
      <point x="1056" y="310" type="line"/>
    </contour>
  </outline>
</glyph>
